<svg width="30" height="30" viewBox="0 0 30 30" fill="none" xmlns="http://www.w3.org/2000/svg">
<path d="M10.3889 13.5658C9.83938 13.5673 9.39414 14.0122 9.39414 14.5617C9.39413 15.0463 9.39528 15.5309 9.39689 16.0156C9.39868 16.5528 9.8248 16.992 10.362 16.9989C11.4167 17.0125 12.6304 17.0042 13.5321 17.0077C14.1711 17.0102 14.5792 17.6164 14.2722 18.1767C12.4558 21.4912 8.57582 22.1898 5.99125 19.6939C3.05294 17.2733 3.26078 12.3513 6.31571 10.1026C8.21897 8.48548 10.5737 8.50319 12.575 9.63847C13.0022 9.88083 13.5485 9.85028 13.8879 9.49518C14.2801 9.08472 14.6614 8.66229 15.0347 8.23058C15.3926 7.81668 15.339 7.18803 14.8965 6.86618C13.2774 5.68854 11.388 4.90993 9.39598 5.00837C4.55573 4.83648 0.105693 9.34825 0.0249693 14.4998C-0.28459 18.7108 2.31726 22.8406 5.99125 24.3302C9.65173 25.8294 14.344 24.8076 16.6812 21.308C18.0471 19.3513 18.4641 16.8972 18.4174 14.505C18.4072 13.9819 17.9724 13.575 17.4492 13.5718C15.0939 13.5575 12.7413 13.5593 10.3889 13.5658Z" fill="white"/>
<path d="M24.7389 18.2228C24.4189 18.2228 24.1735 18.1375 24.0029 17.9668C23.8322 17.7855 23.7469 17.5348 23.7469 17.2148V15.0708H21.6509C21.3415 15.0708 21.1015 14.9908 20.9309 14.8308C20.7709 14.6708 20.6909 14.4362 20.6909 14.1268C20.6909 13.8175 20.7709 13.5828 20.9309 13.4228C21.1015 13.2628 21.3415 13.1828 21.6509 13.1828H23.7469V11.1188C23.7469 10.7988 23.8322 10.5535 24.0029 10.3828C24.1735 10.2122 24.4242 10.1268 24.7549 10.1268C25.0749 10.1268 25.3149 10.2122 25.4749 10.3828C25.6455 10.5535 25.7309 10.7988 25.7309 11.1188V13.1828H27.8269C28.1362 13.1828 28.3709 13.2628 28.5309 13.4228C28.7015 13.5828 28.7869 13.8175 28.7869 14.1268C28.7869 14.4362 28.7015 14.6708 28.5309 14.8308C28.3709 14.9908 28.1362 15.0708 27.8269 15.0708H25.7309V17.2148C25.7309 17.5348 25.6455 17.7855 25.4749 17.9668C25.3149 18.1375 25.0695 18.2228 24.7389 18.2228Z" fill="white"/>
</svg>
