<svg width="42" height="42" viewBox="0 0 42 42" fill="none" xmlns="http://www.w3.org/2000/svg">
<path d="M29.8347 25.6608C30.1306 25.3943 30.5994 25.5317 30.6674 25.9048L31.9788 33.0958C32.0452 33.4599 31.6784 33.777 31.3143 33.6703L24.2998 31.6144C23.9356 31.5077 23.8428 31.0559 24.1316 30.7959L29.8347 25.6608Z" fill="white"/>
<path d="M12.1065 14.1057C12.5169 13.7361 13.1492 13.7692 13.5187 14.1797L25.0499 26.9863C25.4194 27.3967 25.3863 28.029 24.9759 28.3986L23.5993 29.638C23.1889 30.0076 22.5566 29.9744 22.187 29.564L10.6559 16.7574C10.2863 16.347 10.3195 15.7147 10.7299 15.3451L12.1065 14.1057Z" fill="white"/>
<path d="M15.9229 10.6694C16.3333 10.2998 16.9656 10.333 17.3351 10.7434L28.8663 23.55C29.2358 23.9604 29.2027 24.5927 28.7923 24.9623L27.4157 26.2017C27.0053 26.5713 26.373 26.5382 26.0034 26.1277L14.4723 13.3211C14.1027 12.9107 14.1359 12.2784 14.5463 11.9088L15.9229 10.6694Z" fill="white"/>
<path d="M15.1201 9.77558C15.5306 9.40603 15.5637 8.77373 15.1942 8.3633L14.1194 7.16967C13.7499 6.75924 13.1176 6.72611 12.7071 7.09566L7.51341 11.7721C7.10298 12.1416 7.06985 12.7739 7.4394 13.1844L8.51415 14.378C8.8837 14.7884 9.51599 14.8216 9.92642 14.452L15.1201 9.77558Z" fill="white"/>
</svg>
