<svg width="30" height="30" viewBox="0 0 30 30" fill="none" xmlns="http://www.w3.org/2000/svg">
<g clip-path="url(#clip0_2_1394)">
<path d="M13.5013 18.8241C12.9149 18.6107 12.5223 18.2507 12.3236 17.7442C12.1248 17.2377 12.1404 16.6687 12.3702 16.0372C12.5919 15.4283 12.8647 14.8891 13.1888 14.4196C13.5437 13.9358 13.9734 13.492 14.4779 13.0882C15.0132 12.6701 15.65 12.2889 16.3883 11.9447C16.8887 11.6926 17.2937 11.4569 17.6034 11.2376C17.9356 11.0265 18.192 10.8133 18.3725 10.5981C18.5612 10.3603 18.7048 10.1061 18.8033 9.83545C18.9921 9.31674 18.9441 8.85229 18.6592 8.44212C18.3743 8.03194 17.871 7.69552 17.1493 7.43285C16.4276 7.17018 15.7223 7.00286 15.0334 6.93089C14.3445 6.85892 13.6493 6.87409 12.9481 6.97641C12.1401 7.09099 11.4973 6.99751 11.0197 6.69595C10.5502 6.37184 10.2428 5.95346 10.0973 5.4408C9.95191 4.92814 9.95515 4.39297 10.107 3.83529C10.2815 3.28582 10.621 2.80919 11.1255 2.4054C11.6526 2.00981 12.3273 1.77011 13.1495 1.68628C14.2384 1.57178 15.3384 1.60184 16.4497 1.77645C17.5692 1.92852 18.58 2.16872 19.4821 2.49706C21.0383 3.06344 22.3124 3.80813 23.3046 4.73113C24.3193 5.66234 24.9895 6.69802 25.3151 7.83817C25.649 8.95577 25.5985 10.1122 25.1634 11.3075C24.9172 11.9841 24.5817 12.5899 24.1571 13.1249C23.7325 13.66 23.188 14.1386 22.5235 14.5608C21.8672 14.9604 21.0265 15.3057 20.0011 15.5966C19.1132 15.8608 18.4037 16.1261 17.8725 16.3925C17.3496 16.6364 16.9322 16.9059 16.6205 17.2011C16.3313 17.5045 16.0636 17.854 15.8174 18.2496C15.5959 18.5777 15.2934 18.8123 14.9099 18.9537C14.5346 19.0725 14.0651 19.0293 13.5013 18.8241ZM10.457 26.8723C9.41961 26.4947 8.70726 25.8906 8.31996 25.0601C7.95523 24.2377 7.95344 23.3304 8.31462 22.3381C8.66758 21.3683 9.24396 20.697 10.0437 20.324C10.8743 19.9367 11.8083 19.9319 12.8457 20.3095C13.8831 20.6871 14.5842 21.287 14.9489 22.1094C15.3219 22.9092 15.3319 23.7939 14.9789 24.7637C14.6177 25.756 14.0332 26.4499 13.2252 26.8454C12.4172 27.2409 11.4945 27.2499 10.457 26.8723Z" fill="white"/>
</g>
<defs>
<clipPath id="clip0_2_1394">
<rect width="30" height="30" fill="white"/>
</clipPath>
</defs>
</svg>
