<svg width="12" height="18" viewBox="0 0 12 18" fill="none" xmlns="http://www.w3.org/2000/svg">
<g clip-path="url(#clip0_2_1397)">
<path d="M11.1084 8.71504C10.496 7.93102 9.72101 7.16896 9.072 7.07411C8.42298 6.97925 7.99916 7.19917 7.09557 8.07341C6.60192 8.5511 1.23853 13.9123 0.981143 14.3554C0.72375 14.7984 0.658748 15.2409 0.934051 15.7156C1.2001 16.1741 1.97791 17.0989 2.73862 17.465C3.33028 17.7498 3.8195 17.8432 4.71363 17.0405C5.4192 16.4071 10.7385 11.0929 11.2547 10.1582C11.5383 9.64526 11.431 9.12809 11.1084 8.71504Z" fill="white"/>
<path d="M10.1866 11.192C10.9701 10.5792 11.7316 9.80364 11.8264 9.15415C11.9212 8.50467 11.7014 8.08054 10.8278 7.1763C10.3504 6.68229 4.59303 0.914677 4.15029 0.6573C3.70755 0.399722 3.26541 0.334673 2.79108 0.610175C2.33285 0.876413 1.40873 1.65479 1.04286 2.41604C0.758304 3.00813 0.664927 3.49771 1.46709 4.39248C2.14991 5.15414 7.83851 10.8374 8.74451 11.3386C9.25728 11.6222 9.77408 11.5148 10.1866 11.192Z" fill="white"/>
</g>
<defs>
<clipPath id="clip0_2_1397">
<rect width="11.25" height="17.5" fill="white" transform="translate(0.616974 0.25)"/>
</clipPath>
</defs>
</svg>
