<svg width="20" height="18" viewBox="0 0 20 18" fill="none" xmlns="http://www.w3.org/2000/svg">
<g clip-path="url(#clip0_2_1322)">
<path d="M1.36712 7.78609C1.2495 8.77391 1.25889 9.86122 1.63995 10.3875C2.021 10.9137 2.4637 11.0583 3.68572 11.0792C4.3533 11.0907 18.2921 11.0949 18.7736 10.9638C19.255 10.8325 19.6038 10.5659 19.7406 10.0354C19.8729 9.52288 19.9735 8.31857 19.7018 7.52147C19.4906 6.90139 19.2184 6.48914 18.052 6.42409C17.1315 6.37274 3.25516 6.3665 2.2582 6.66194C1.71079 6.82426 1.42916 7.2659 1.36712 7.78609Z" fill="white"/>
<path d="M0.717928 9.20534C1.31348 9.98935 2.06717 10.7514 2.69834 10.8463C3.32951 10.9411 3.74168 10.7212 4.62043 9.84696C5.10051 9.36927 10.3164 4.00806 10.5667 3.565C10.8171 3.12194 10.8803 2.67949 10.6125 2.20481C10.3538 1.74625 9.59738 0.821463 8.85759 0.455336C8.2822 0.17057 7.80642 0.0771252 6.93687 0.879866C6.25051 1.51304 1.07745 6.82752 0.57545 7.76197C0.299888 8.27512 0.404202 8.79228 0.717928 9.20534Z" fill="white"/>
<path d="M1.61448 6.72844C0.852578 7.34127 0.112004 8.11682 0.0198235 8.76631C-0.0723568 9.41579 0.141361 9.83992 0.990946 10.7442C1.45518 11.2382 7.0543 17.0058 7.48487 17.2632C7.91543 17.5207 8.34541 17.5858 8.8067 17.3103C9.25234 17.044 10.151 16.2657 10.5069 15.5044C10.7836 14.9123 10.8744 14.4228 10.0943 13.528C9.43024 12.7663 3.89825 7.08309 3.01715 6.58203C2.51848 6.29847 2.01589 6.40561 1.61448 6.72844Z" fill="white"/>
</g>
<defs>
<clipPath id="clip0_2_1322">
<rect width="20" height="17.5" fill="white" transform="translate(0 0.25)"/>
</clipPath>
</defs>
</svg>
