<svg width="30" height="30" viewBox="0 0 30 30" fill="none" xmlns="http://www.w3.org/2000/svg">
<path d="M24.6976 16.112C24.2319 15.2569 22.9178 14.5368 21.1712 15.752C18.7926 17.4622 17.4659 16.9934 15 16.9934C12.5341 16.9934 11.2074 17.4622 8.82877 15.752C7.0822 14.5368 5.76811 15.2569 5.30236 16.112C4.47065 17.6122 5.40216 18.3473 7.51468 19.5624C8.7408 20.2726 10.2712 20.6809 11.6274 20.9172C12.3024 21.0348 12.5812 21.8939 12.0724 22.3528C10.1761 24.048 8.34638 25.6832 7.09883 26.8234C6.3503 27.5134 6.3503 28.6086 7.09883 29.2537L7.33171 29.4937C8.08024 30.1688 9.31116 30.1688 10.0597 29.4937L14.1327 25.8079C14.6264 25.3612 15.3772 25.3572 15.8745 25.8C17.458 27.2099 18.9206 28.529 19.9902 29.4937C20.7387 30.1688 21.953 30.1688 22.7182 29.4937L22.9344 29.2537C23.6996 28.6086 23.6996 27.5134 22.9344 26.8234L17.9775 22.3528C17.4734 21.8867 17.7612 21.0254 18.4373 20.9061C19.7728 20.6705 21.276 20.2592 22.4853 19.5624C24.5978 18.3473 25.5293 17.6122 24.6976 16.112ZM15 3.85548C17.2595 3.85548 19.1585 5.53569 19.1585 7.59095C19.1585 9.66121 17.2595 11.3264 15 11.3264C12.7405 11.3264 10.8415 9.66121 10.8415 7.59095C10.8415 5.53569 12.7405 3.85548 15 3.85548ZM15 15.1819C19.6575 15.1819 23.4168 11.8458 23.4168 7.59095C23.4168 3.33609 19.5822 3.70688e-07 15 0C10.4178 -3.70689e-07 6.58318 3.40543 6.58318 7.59095C6.58318 11.7915 10.3425 15.1819 15 15.1819Z" fill="white"/>
</svg>
