<svg width="37" height="37" viewBox="0 0 37 37" fill="none" xmlns="http://www.w3.org/2000/svg">
<path d="M27.8104 27.7966C27.1033 28.5037 26.3726 28.8572 25.6184 28.8572C24.8405 28.8337 24.0981 28.4683 23.391 27.7612L18.6534 23.0236L14.0218 27.6551C13.3383 28.3387 12.6312 28.6922 11.9005 28.7158C11.1934 28.7158 10.4981 28.374 9.81452 27.6905C9.13098 27.007 8.78921 26.3116 8.78921 25.6045C8.81278 24.8739 9.16634 24.1668 9.84987 23.4832L14.4814 18.8517L9.92058 14.2908C9.21348 13.5837 8.85992 12.853 8.85992 12.0988C8.85992 11.3446 9.22526 10.6021 9.95594 9.87141C10.663 9.16431 11.3819 8.82254 12.1126 8.84611C12.8669 8.84611 13.5975 9.19966 14.3046 9.90677L18.8655 14.4676L23.497 9.83606C24.1806 9.15252 24.8759 8.81075 25.583 8.81075C26.3137 8.78718 27.0208 9.11717 27.7043 9.8007C28.3879 10.4842 28.7178 11.1913 28.6943 11.922C28.6943 12.6291 28.3525 13.3245 27.669 14.008L23.0374 18.6395L27.775 23.3772C28.4821 24.0843 28.8475 24.8267 28.871 25.6045C28.8946 26.3352 28.5411 27.0659 27.8104 27.7966Z" fill="white"/>
</svg>
