<svg width="30" height="30" viewBox="0 0 30 30" fill="none" xmlns="http://www.w3.org/2000/svg">
<g clip-path="url(#clip0_2_1405)">
<path d="M29.3211 7.30622C28.9857 8.42837 28.5343 9.40605 27.9692 10.2941C27.4118 11.282 26.7472 12.4218 25.9756 13.7136C25.3088 14.7414 24.9558 15.2734 24.9167 15.3098C24.7441 15.5399 24.6241 15.8219 24.5828 16.1318L24.5816 16.1411C24.6154 16.4231 24.7379 16.6692 24.9167 16.8528L25.4167 17.446C28.0922 20.3715 29.597 22.388 29.9312 23.4956C29.975 23.618 30 23.759 30 23.9066C30 24.1647 29.9225 24.4028 29.7912 24.5983L29.7937 24.5943C29.5737 24.8351 29.2661 24.984 28.9261 24.984C28.8886 24.984 28.8498 24.9827 28.8136 24.9787H25.5293H25.523C25.1017 24.9787 24.7141 24.8218 24.4103 24.561L24.4141 24.5637C23.9715 24.1766 23.5777 23.7576 23.2251 23.3027L23.2139 23.2868C22.6379 22.5942 22.127 22.0111 21.6811 21.5376C20.1959 20.0354 19.0999 19.2843 18.3931 19.2843C18.3668 19.2816 18.3368 19.2803 18.3056 19.2803C18.0993 19.2803 17.9067 19.3482 17.748 19.4639L17.7517 19.4612C17.6217 19.6341 17.5429 19.8576 17.5429 20.0984C17.5429 20.1456 17.5454 20.1902 17.5514 20.236C17.5515 20.2349 17.5516 20.2338 17.5517 20.2327V20.238C17.5516 20.2374 17.5515 20.2367 17.5514 20.236C17.5178 20.6529 17.4979 21.1372 17.4979 21.6267C17.4979 21.785 17.5004 21.942 17.5042 22.0989V23.618C17.5167 23.6805 17.5242 23.7523 17.5242 23.8255C17.5242 24.1474 17.3866 24.4347 17.1716 24.6249L17.1704 24.6262C16.6865 24.8617 16.1214 25 15.5251 25C15.4021 25 15.2815 24.9938 15.1621 24.9826C13.1954 24.9422 11.3711 24.3291 9.82039 23.2961L9.86415 23.3227C7.97508 22.1016 6.40982 20.512 5.21712 18.6339L5.18336 18.578C4.05068 16.9791 2.99425 15.1728 2.0941 13.268L2.00658 13.0631C1.48025 11.9964 0.935156 10.6848 0.465078 9.33604L0.390065 9.08996C0.198783 8.48341 0.06001 7.77842 0.00250042 7.04817L0 7.01491C0 6.34274 0.371729 6.00665 1.11519 6.00665H4.40323C4.43324 6.00399 4.46825 6.00266 4.5045 6.00266C4.81419 6.00266 5.10019 6.11546 5.32635 6.30528C5.32578 6.30461 5.32521 6.30394 5.32464 6.30328L5.32714 6.30594C5.32688 6.30572 5.32661 6.3055 5.32635 6.30528C5.57553 6.59622 5.75992 6.95331 5.85098 7.35144L5.85473 7.3674C6.45983 9.18573 7.10118 10.7128 7.83881 12.1759L7.75504 11.9937C8.35764 13.284 9.024 14.3946 9.78413 15.4202L9.75538 15.379C10.4222 16.2498 11.2519 15.9762 11.2519 15.9762C11.2519 15.9762 11.9545 15.829 11.9295 15.379V15.371V10.2193L11.9352 7.0062C11.9362 6.45461 12.3836 6.00798 12.9352 6.00798H16.2527H16.5092C17.0615 6.00798 17.5092 6.4557 17.5092 7.00798V7.33016V14.1938C17.5029 14.646 17.6202 15.7958 18.6794 14.9892C19.0194 14.7405 19.312 14.4572 19.5658 14.1366L19.5708 14.1299C20.3296 13.2174 21.0298 12.2092 21.6399 11.1371L21.6886 11.044C22.1187 10.2858 22.5838 9.352 23.0051 8.39296L23.0826 8.19742L23.6402 7.01092C23.834 6.41767 24.3541 6 24.9654 6C24.9892 6 25.0129 6 25.0367 6.00133H28.3222C29.2107 6.00133 29.5441 6.43629 29.3224 7.30622H29.3211Z" fill="white"/>
</g>
<defs>
<clipPath id="clip0_2_1405">
<rect width="30" height="30" fill="white"/>
</clipPath>
</defs>
</svg>
